<?xml version="1.0" encoding="UTF-8"?>
<svg id="_图层_2" data-name="图层 2" xmlns="http://www.w3.org/2000/svg" xmlns:xlink="http://www.w3.org/1999/xlink" viewBox="0 0 354.66 64">
  <defs>
    <style>
      .cls-1 {
        fill: url(#_未命名的渐变_135);
      }

      .cls-2 {
        fill: #101010;
      }

      .cls-3 {
        fill: url(#_未命名的渐变_13);
      }

      .cls-4 {
        fill: url(#_未命名的渐变_17);
      }

      .cls-5 {
        fill: url(#_未命名的渐变_22);
      }

      .cls-6 {
        fill: url(#_未命名的渐变_135-2);
      }
    </style>
    <linearGradient id="_未命名的渐变_17" data-name="未命名的渐变 17" x1="33.05" y1="14.95" x2="42.95" y2="5.05" gradientUnits="userSpaceOnUse">
      <stop offset="0" stop-color="#30bdfb"/>
      <stop offset=".24" stop-color="#0a91f5"/>
      <stop offset=".28" stop-color="#0c93eb"/>
      <stop offset=".36" stop-color="#1498d2"/>
      <stop offset=".45" stop-color="#20a1a9"/>
      <stop offset=".47" stop-color="#23a4a0"/>
      <stop offset=".76" stop-color="#5fb95c"/>
      <stop offset="1" stop-color="#ecc60f"/>
    </linearGradient>
    <linearGradient id="_未命名的渐变_135" data-name="未命名的渐变 135" x1="67.35" y1="52.65" x2="78.65" y2="41.35" gradientUnits="userSpaceOnUse">
      <stop offset="0" stop-color="#ffb152"/>
      <stop offset=".21" stop-color="#f36086"/>
      <stop offset=".44" stop-color="#e2579d"/>
      <stop offset=".5" stop-color="#d955a6"/>
      <stop offset=".6" stop-color="#c351bf"/>
      <stop offset=".66" stop-color="#b24fd4"/>
      <stop offset=".79" stop-color="#aa5fed"/>
      <stop offset=".98" stop-color="#c97ceb"/>
    </linearGradient>
    <linearGradient id="_未命名的渐变_22" data-name="未命名的渐变 22" x1="108.76" y1="10.24" x2="117.24" y2="1.76" gradientUnits="userSpaceOnUse">
      <stop offset="0" stop-color="#0c8aec"/>
      <stop offset=".44" stop-color="#0737c4"/>
      <stop offset=".51" stop-color="#1039c6"/>
      <stop offset=".62" stop-color="#293fcd"/>
      <stop offset=".77" stop-color="#534ad7"/>
      <stop offset=".93" stop-color="#8c58e6"/>
      <stop offset="1" stop-color="#a55fed"/>
    </linearGradient>
    <linearGradient id="_未命名的渐变_13" data-name="未命名的渐变 13" x1="146.56" y1="32.88" x2="3.59" y2="32.88" gradientUnits="userSpaceOnUse">
      <stop offset=".07" stop-color="#c97ceb"/>
      <stop offset=".16" stop-color="#0c8aec"/>
      <stop offset=".29" stop-color="#30bdfb"/>
      <stop offset=".31" stop-color="#31bcf1"/>
      <stop offset=".35" stop-color="#36bad8"/>
      <stop offset=".4" stop-color="#3eb8ae"/>
      <stop offset=".46" stop-color="#49b575"/>
      <stop offset=".46" stop-color="#4ab571"/>
      <stop offset=".65" stop-color="#d6c31b"/>
      <stop offset=".75" stop-color="#ff8a4b"/>
      <stop offset=".91" stop-color="#ffb152"/>
    </linearGradient>
    <linearGradient id="_未命名的渐变_135-2" data-name="未命名的渐变 135" x1="13.62" y1="34" x2="148.21" y2="34" xlink:href="#_未命名的渐变_135"/>
  </defs>
  <g id="_图层_1-2" data-name="图层 1">
    <g>
      <g>
        <path class="cls-2" d="M170.56,38.75v7.3c0,1.19-.96,2.15-2.15,2.15h0c-1.19,0-2.15-.96-2.15-2.15v-25.66c0-1.66,1.34-3,3-3h5.96c3.41,0,6.03.82,7.87,2.46,1.84,1.64,2.76,3.99,2.76,7.06s-1.03,5.47-3.08,7.38c-2.06,1.91-4.82,2.87-8.3,2.87h-2.32c-.88,0-1.59.71-1.59,1.59ZM170.56,23.09v8.38c0,1.1.9,2,2,2h1.57c2.35,0,4.14-.55,5.37-1.64,1.23-1.1,1.85-2.67,1.85-4.72s-.57-3.51-1.72-4.51c-1.15-1-2.87-1.5-5.16-1.5h-1.91c-1.1,0-2,.9-2,2Z"/>
        <path class="cls-2" d="M194.49,48.21h0c-1.19,0-2.15-.96-2.15-2.15v-26.51c0-1.19.96-2.15,2.15-2.15h0c1.19,0,2.15.96,2.15,2.15v26.51c0,1.19-.96,2.15-2.15,2.15Z"/>
        <path class="cls-2" d="M223.48,48.21h-.59c-.59,0-1.15-.27-1.53-.73l-10.71-13.17c-.19-.23-.35-.44-.48-.64-.14-.2-.25-.39-.33-.56h-.09v13.13c0,1.09-.88,1.97-1.97,1.97h-.36c-1.09,0-1.97-.88-1.97-1.97v-26.87c0-1.09.88-1.97,1.97-1.97h.36c1.09,0,1.97.88,1.97,1.97v12.47h.09c.1-.16.22-.34.35-.54.14-.2.29-.42.46-.64l10.32-12.54c.37-.45.93-.72,1.52-.72h0c1.68,0,2.59,1.98,1.49,3.25l-8.76,10.19c-.64.75-.65,1.85,0,2.6l9.77,11.53c1.08,1.28.18,3.24-1.5,3.24Z"/>
        <path class="cls-2" d="M247.42,48.21h-11.9c-1.66,0-3-1.34-3-3v-24.81c0-1.66,1.35-3,3-3h11.2c1.03.01,1.86.85,1.86,1.88h0c0,1.03-.83,1.87-1.87,1.87-2.16,0-5.7,0-7.91,0-1.1,0-1.99.9-1.99,2v5.95c0,.88.71,1.59,1.59,1.59h7.46c1.03,0,1.87.84,1.87,1.87h0c0,1.03-.84,1.87-1.87,1.87h-7.04c-1.1,0-2,.9-2,2v6.42c0,.88.71,1.59,1.59,1.59l9.04.02c1.02,0,1.85.83,1.85,1.85h0c0,1.04-.84,1.88-1.88,1.88Z"/>
        <path class="cls-2" d="M255.12,35.77h0c0-.88.71-1.59,1.59-1.59h8.55c.88,0,1.59.71,1.59,1.59h0c0,.88-.71,1.59-1.59,1.59h-8.55c-.88,0-1.59-.71-1.59-1.59Z"/>
        <path class="cls-2" d="M293.21,48.21h0c-.76,0-1.46-.4-1.84-1.05l-4.43-7.46c-.92-1.55-1.72-2.57-2.42-3.07-.7-.5-1.53-.76-2.5-.77h0c-1.77,0-3.2,1.43-3.2,3.2v7c0,1.19-.96,2.15-2.15,2.15h0c-1.19,0-2.15-.96-2.15-2.15v-25.66c0-1.66,1.34-3,3-3h6.56c2.89,0,5.24.71,7.05,2.14,1.8,1.43,2.71,3.53,2.71,6.33,0,2.15-.57,3.96-1.72,5.44-1.15,1.48-2.72,2.55-4.73,3.22v.09c.7.37,1.33.83,1.88,1.39.55.55,1.1,1.28,1.64,2.18l4.12,6.78c.87,1.43-.16,3.25-1.83,3.25ZM278.82,23.07v7.11c0,1.1.9,2,2,2h2.51c1.73,0,3.17-.55,4.3-1.67,1.13-1.11,1.7-2.53,1.7-4.26,0-1.6-.5-2.87-1.51-3.79s-2.48-1.39-4.42-1.39h-2.58c-1.1,0-2,.9-2,2Z"/>
        <path class="cls-2" d="M299.78,45.22l9.75-25.65c.5-1.31,1.75-2.18,3.16-2.18h0c1.4,0,2.66.87,3.16,2.18l9.71,25.64c.55,1.44-.52,2.98-2.06,2.98h0c-.92,0-1.75-.58-2.07-1.44l-1.89-5.11c-.29-.79-1.04-1.31-1.88-1.31h-10.08c-.85,0-1.6.54-1.89,1.34l-1.78,5.06c-.31.88-1.14,1.47-2.08,1.47h0c-1.54,0-2.6-1.54-2.06-2.98ZM309.67,36.65h5.86c1.1,0,1.87-1.09,1.5-2.13l-3.48-10.15c-.31-.9-1.58-.9-1.89,0l-3.48,10.16c-.37,1.04.4,2.12,1.5,2.12Z"/>
        <path class="cls-2" d="M354.66,44.21c0,1.17-.66,2.25-1.73,2.72-1.02.46-2.09.83-3.2,1.11-1.75.45-3.61.68-5.58.68-4.58,0-8.23-1.34-10.94-4.03s-4.06-6.51-4.06-11.46,1.48-8.9,4.45-11.88c2.96-2.98,6.82-4.47,11.58-4.47,1.79,0,3.42.17,4.9.52.85.2,1.71.47,2.58.8,1.04.4,1.51,1.63,1.02,2.63h0c-.44.91-1.5,1.33-2.44.96-.71-.28-1.51-.57-2.05-.7-1.2-.29-2.55-.43-4.04-.43-3.37,0-6.12,1.07-8.27,3.2-2.15,2.13-3.22,5.16-3.22,9.09s.96,6.98,2.88,8.98c1.92,2.01,4.6,3.01,8.04,3.01,1.12,0,2.16-.1,3.13-.31.49-.1.95-.24,1.4-.4.77-.28,1.25-1.04,1.25-1.86v-4.8c0-1.1-.9-2-2-2h-2.77c-1.03,0-1.87-.84-1.87-1.87h0c0-1.03.84-1.87,1.87-1.87h6.07c1.66,0,3,1.34,3,3v9.38Z"/>
      </g>
      <g>
        <path class="cls-4" d="M38,17c-3.86,0-7-3.14-7-7s3.14-7,7-7,7,3.14,7,7-3.14,7-7,7ZM38,7c-1.65,0-3,1.35-3,3s1.35,3,3,3,3-1.35,3-3-1.35-3-3-3Z"/>
        <path class="cls-1" d="M73,55c-4.41,0-8-3.59-8-8s3.59-8,8-8,8,3.59,8,8-3.59,8-8,8ZM73,43.5c-1.93,0-3.5,1.57-3.5,3.5s1.57,3.5,3.5,3.5,3.5-1.57,3.5-3.5-1.57-3.5-3.5-3.5Z"/>
        <path class="cls-5" d="M113,12c-3.31,0-6-2.69-6-6s2.69-6,6-6,6,2.69,6,6-2.69,6-6,6ZM113,4c-1.1,0-2,.9-2,2s.9,2,2,2,2-.9,2-2-.9-2-2-2Z"/>
        <g>
          <path class="cls-3" d="M15.52,55.36c-.9-.53-1.76-1.14-2.58-1.82-.42-.35.26.25-.14-.13-.22-.21-.44-.43-.66-.65-.4-.42-.79-.85-1.16-1.31-.34-.42-.66-.87-.98-1.31-.2-.27.08.12.09.14-.08-.13-.17-.26-.26-.4-.17-.27-.33-.54-.49-.82-.58-1.01-1.09-2.06-1.54-3.15-.11-.26-.21-.53-.32-.8-.21-.53-.02-.05.02.05-.04-.12-.08-.23-.12-.35-.2-.59-.39-1.18-.56-1.78-.34-1.21-.62-2.44-.85-3.69-.1-.58-.2-1.17-.28-1.76-.02-.17-.04-.34-.07-.5,0,.03.06.57.02.2-.03-.34-.07-.67-.1-1.01-.09-1.07-.16-2.15-.15-3.24,0-.5.03-1,.06-1.5.01-.19-.01-.7.08-.86,0-.01-.1.65-.03.29.03-.18.05-.36.08-.54.16-1.03.38-2.05.68-3.05.07-.24.15-.47.23-.71.11-.35-.07-.15-.06.15,0-.07.09-.23.11-.29.21-.47.41-.95.64-1.4.11-.21.22-.42.34-.62.07-.11.15-.22.21-.34.16-.3-.16.24-.15.22.09-.4.71-.94.96-1.22.15-.16.32-.31.47-.48.22-.25-.21.2-.2.17.02-.06.27-.22.29-.24.37-.3.77-.55,1.17-.79.05-.03.2-.14.25-.13-.2-.02-.46.19-.13.07.21-.08.42-.17.63-.24s.44-.13.66-.19c.24-.06.87-.11.31-.07,1.04-.06,2.03-.09,3.07,0,.39.04-.5-.1-.11-.02.1.02.2.04.3.06.27.06.53.12.8.19.49.13.98.3,1.46.48.22.09.45.18.67.27.1.04.78.35.43.19-.32-.14.3.15.42.22.25.13.49.27.74.41.9.51,1.77,1.07,2.63,1.65,1.78,1.19,3.51,2.47,5.31,3.61,3.26,2.07,6.94,3.84,10.74,3.62,6.01-.35,10.86-4.82,15.05-9.39,2.01-2.19,3.93-4.5,5.97-6.65.5-.52,1-1.03,1.51-1.53.23-.22.47-.44.71-.66.34-.32-.57.49-.09.08.14-.12.27-.23.41-.35.96-.8,1.96-1.46,3.02-2.07.38-.22-.63.28-.23.11.14-.06.28-.13.42-.18.26-.11.52-.2.79-.29.25-.08.49-.13.74-.19.05-.01.11-.02.16-.03.38-.1-.42.06-.4.06.14,0,.29-.04.43-.05.25-.02.51-.03.76-.02.13,0,.26.01.38.02s.7.09.14,0-.04,0,.08.03.26.06.39.1c.31.08.61.19.9.31.13.05.27.14.4.18-.3-.09-.57-.29-.13-.05.3.16.59.34.87.53s.56.4.83.61c.14.11.28.24.42.35.24.18-.27-.24-.25-.22.09.1.2.19.3.28.57.54,1.11,1.12,1.6,1.76.14.18.27.35.4.53.25.35.14.27-.04-.07.21.41.5.78.73,1.18.89,1.54,1.63,3.19,2.29,4.87.17.42.33.85.49,1.28-.01-.03.13.37.14.37,0,0-.21-.6-.1-.28.1.28.2.56.3.85.33.92.64,1.85.96,2.78,1.31,3.87,2.56,7.82,4.32,11.45,1.66,3.43,3.91,6.69,6.94,8.61,3.8,2.41,8.32,2.58,12.43,1.18,4.44-1.51,8.4-4.55,11.85-8.04,3.21-3.25,5.92-7.08,8.23-11.21,1.15-2.06,2.17-4.22,3.24-6.33.53-1.05,1.07-2.08,1.65-3.1.28-.48.56-.96.85-1.43.08-.12.62-.94.22-.35.18-.26.35-.51.54-.76.66-.9,1.37-1.75,2.14-2.51.16-.16.63-.56.19-.2.2-.17.4-.34.6-.5.44-.35.91-.67,1.39-.95.13-.07.26-.14.39-.21-.03.02-.44.18-.15.09.24-.07.47-.18.71-.26s.48-.11.72-.18c.38-.11-.49.04-.1.01.17-.01.34-.04.52-.05.14,0,1.46.01,1.45.06,0,.02-.53-.11-.21-.03.1.03.21.04.31.06.31.07.61.16.91.26.23.08.46.18.69.27.06.02.37.2.06.03-.33-.18.07.05.15.09.44.25.87.54,1.27.86.09.07.17.14.26.21-.45-.34-.15-.14-.05-.04.19.19.38.37.56.57s.35.41.52.62c.1.12.18.25.28.37-.06-.08-.33-.51-.03-.04.84,1.31,2.39,2.1,3.71,1.12,1.13-.84,1.87-2.87.97-4.27-3.04-4.75-8.13-7.45-13.24-6.02-4.66,1.3-8.09,5.99-10.56,10.42-2.29,4.11-4.16,8.5-6.71,12.43-.06.09-.12.18-.18.28-.22.36.29-.42.05-.08-.15.21-.3.43-.45.65-.35.5-.72.99-1.09,1.48-.72.94-1.48,1.85-2.27,2.73s-1.65,1.76-2.52,2.58c-.09.09-.66.61-.43.4.25-.23-.05.04-.08.07-.12.1-.24.21-.36.31-.48.41-.97.81-1.47,1.19-.93.7-1.88,1.35-2.87,1.93-.45.26-.91.51-1.38.75.5-.25-.05.02-.25.1-.3.13-.6.25-.9.37-.46.18-.93.33-1.41.47-.23.07-.47.13-.71.18-.16.04-.78.06-.91.18.01-.01.53-.07.22-.04-.13.01-.27.03-.4.05-.23.02-.47.04-.7.05-.53.02-1.07,0-1.6-.04-.1,0-.2-.03-.3-.03-.38,0,.49.13.12.02-.23-.06-.46-.09-.69-.15-.5-.12-1-.28-1.48-.48-.1-.04-.71-.33-.27-.11.42.21-.14-.08-.25-.14-.37-.21-.73-.44-1.08-.69-.15-.11-.3-.23-.45-.34-.06-.05-.12-.1-.19-.15-.36-.29.15.13.18.17-.28-.34-.63-.61-.93-.93-.26-.29-.51-.59-.76-.9-.12-.16-.24-.32-.36-.48-.09-.12-.5-.73-.24-.32.28.43-.11-.17-.17-.27-.13-.2-.25-.41-.37-.61-.23-.39-.45-.79-.66-1.2-.44-.83-.84-1.69-1.21-2.56s-.75-1.81-1.1-2.74c-.05-.12-.09-.25-.14-.37-.12-.32.11.28.1.28-.12-.16-.2-.56-.27-.76-.17-.48-.34-.96-.5-1.44-1.36-3.96-2.6-8.01-4.3-11.8-2.94-6.52-8.38-12.49-15.21-11.26-2.48.44-4.78,1.93-6.76,3.66-2.32,2.02-4.4,4.32-6.46,6.67-2.04,2.31-4.07,4.62-6.31,6.68-.53.48.31-.26,0,0-.13.11-.26.22-.39.33-.28.23-.55.46-.84.68-.56.43-1.13.84-1.71,1.21-.29.18-.58.36-.88.52-.14.08-.28.15-.41.22-.58.31.39-.17.05-.02-.6.26-1.2.51-1.83.69-.31.09-.62.17-.94.23-.06.01-.13.02-.19.04-.41.09.33-.05.34-.05-.17,0-.34.04-.51.06-.66.06-1.32.06-1.97-.01-.09,0-.18-.02-.27-.03-.33-.03.07-.15.31.05-.09-.07-.37-.07-.48-.09-.43-.09-.86-.21-1.28-.35-.46-.15-.92-.32-1.37-.51-.26-.11-.51-.23-.77-.34.55.24-.08-.04-.3-.16-3.78-2-7.11-4.97-10.9-6.96-4.35-2.29-9.29-3.32-13.82-1.06-3.88,1.93-6.33,6.48-7.33,11.05-1.08,4.9-.68,10.11.35,14.97,1.1,5.2,3.24,10.23,6.53,14.06,1.53,1.78,3.32,3.31,5.26,4.44,1.26.74,3,.43,3.71-1.12.65-1.42.38-3.49-.97-4.27h0Z"/>
          <path class="cls-6" d="M141.69,14.78c.36.56.69,1.14.99,1.75.13.27.26.55.38.82.07.15.13.3.19.45.05.12.29.79.09.22s.01.03.05.16c.05.16.1.32.15.47.11.34.21.69.3,1.04.18.68.32,1.37.44,2.07.05.32.1.64.14.95.01.1.02.2.04.3.01.07-.08-.8-.05-.46.02.2.04.4.06.6.06.74.1,1.47.11,2.21.02,1.5-.09,2.98-.22,4.48-.03.34.06-.49.05-.43-.02.1-.03.21-.04.32-.02.19-.05.37-.08.56-.06.4-.12.8-.19,1.2-.13.75-.28,1.5-.44,2.24-.35,1.56-.78,3.09-1.29,4.6-.11.34-.24.67-.35,1.01-.12.36.24-.64.1-.28-.03.08-.06.15-.09.23-.08.21-.16.41-.24.62-.29.74-.6,1.47-.92,2.19-.63,1.41-1.33,2.78-2.09,4.1-.38.66-.78,1.31-1.19,1.95-.13.2-.52.65.04-.05-.09.12-.17.26-.26.38-.22.32-.44.63-.67.94-.86,1.16-1.77,2.26-2.75,3.28-.46.48-.94.92-1.42,1.37-.25.24.5-.43.24-.21-.05.04-.1.09-.16.13-.12.1-.24.21-.37.31-.26.21-.52.42-.79.62-.49.37-.99.71-1.51,1.03-.25.16-.51.3-.77.45-.13.07-.26.14-.39.21-.49.26.6-.27.09-.04-1.05.47-2.11.82-3.22,1.05-.56.12.31-.03.2-.03-.13,0-.27.04-.4.05-.29.03-.58.05-.86.06-.56.01-1.12-.04-1.68-.09-.44-.04.69.14.26.04-.13-.03-.27-.05-.41-.08-.29-.06-.58-.14-.87-.22s-.54-.18-.81-.28c-.14-.05-.27-.11-.4-.16-.12-.05-.68-.32-.19-.08.47.23-.02-.01-.14-.08-.13-.07-.27-.15-.4-.22-.29-.17-.58-.35-.86-.54-.25-.17-.5-.35-.74-.54-.13-.1-.27-.21-.4-.32-.08-.06-.15-.13-.23-.19-.3-.24.16.13.21.19-.49-.58-1.11-1.06-1.61-1.63-.54-.6-1.04-1.24-1.53-1.9-.13-.17-.25-.35-.38-.53-.03-.04-.21-.31-.21-.31,0,0,.33.51.16.23-.26-.42-.54-.83-.79-1.26-.53-.88-1.03-1.79-1.49-2.72-.62-1.22-1.18-2.47-1.71-3.75-.27-.65-.53-1.32-.78-1.98-.05-.14-.11-.29-.16-.43.16.44-.02-.05-.04-.11-.14-.38-.27-.77-.4-1.16-.95-2.76-1.77-5.58-2.59-8.39-2.57-8.83-5.06-19.19-12.24-24.61-3.45-2.6-7.64-3.14-11.61-2.11-4.11,1.07-7.82,3.73-11.1,6.7-5.98,5.42-10.38,12.76-14.65,19.91-1.06,1.78-2.12,3.57-3.21,5.33-.55.9-1.1,1.79-1.67,2.67-.27.42-.54.85-.82,1.27-.12.18-.24.36-.36.54-.29.44.02-.02.07-.1-.08.12-.16.24-.24.36-2.28,3.36-4.77,6.56-7.61,9.3-.17.17-.35.33-.52.49-.08.08-.64.59-.33.31s-.27.24-.34.29c-.21.18-.42.35-.63.52-.74.6-1.5,1.17-2.28,1.7-.39.27-.79.53-1.2.78-.2.13-.41.25-.61.37-.09.05-.18.11-.27.15,0,0-.64.32-.3.15.3-.14-.05.02-.1.04-.14.06-.28.13-.43.19-.25.11-.5.22-.76.32-.55.22-1.11.43-1.67.61-1.07.36-2.15.64-3.25.87-.28.06-.55.11-.83.16-.12.02-.24.04-.36.06.53-.09.11-.02,0,0-.6.08-1.21.14-1.81.19-1.13.08-2.27.09-3.4.03-.56-.03-1.13-.08-1.69-.15-.18-.02-.88-.15-.36-.05-.32-.06-.63-.11-.95-.18-1.09-.23-2.18-.55-3.23-.95-.22-.09-.45-.17-.67-.27-.09-.04-.8-.35-.55-.24s-.42-.22-.53-.28c-.18-.1-.36-.2-.54-.31-1.26-.74-3-.43-3.71,1.12-.65,1.42-.38,3.49.97,4.27,4.36,2.54,9.32,3.53,14.18,3.27,4.76-.25,9.65-1.52,13.86-4.16,6.98-4.4,12.17-11.49,16.75-18.82,2.23-3.57,4.34-7.24,6.55-10.83.57-.92,1.14-1.84,1.73-2.75.27-.42.55-.84.82-1.26.17-.25.32-.51.05-.08.17-.27.36-.53.54-.79,1.16-1.69,2.37-3.33,3.66-4.89s2.63-3.01,4.06-4.35c.17-.16.34-.34.52-.48-.44.35-.07.06.14-.11.39-.33.78-.65,1.17-.96.77-.61,1.57-1.17,2.39-1.7.4-.26.8-.5,1.21-.74.21-.12.41-.24.62-.35.12-.07.24-.13.36-.19-.25.13-.18.08.03,0,1.05-.46,2.11-.85,3.22-1.09.12-.03.52-.03.61-.12-.15.16-.49.06-.12.02.13-.01.26-.03.39-.04.47-.04.95-.06,1.42-.04.21,0,.43.02.64.04.09,0,.18.03.27.03.37,0-.55-.12-.19-.03.43.11.86.19,1.28.32.16.05,1.02.52,1.14.45,0,0-.51-.27-.25-.12.1.06.21.11.31.16.21.11.41.23.61.36.35.22.69.46,1.02.72.06.05.49.41.49.4,0,.01-.43-.4-.21-.18.11.11.23.21.34.32.66.64,1.26,1.35,1.82,2.1.14.19.27.38.41.57.1.14.34.37-.08-.13.06.07.12.17.17.26.28.44.55.88.81,1.33,1.05,1.84,1.88,3.81,2.66,5.81-.28-.72.02.06.08.23.09.25.18.51.26.76.2.59.39,1.18.57,1.77.4,1.3.79,2.61,1.18,3.91,2.97,10,5.63,21.08,12.42,28.67,2.13,2.38,4.69,4.31,7.56,5.28,2.57.87,5.3.87,7.9.18,5.23-1.39,9.74-5.62,13.05-10.34,3.75-5.35,6.55-11.64,7.96-18.34,1.36-6.49,1.43-13.38-.91-19.58-.47-1.26-1.06-2.45-1.77-3.55-.84-1.31-2.39-2.1-3.71-1.12-1.13.84-1.87,2.87-.97,4.27h0Z"/>
        </g>
      </g>
    </g>
  </g>
</svg>