<svg width="1131" height="483" viewBox="0 0 1131 483" fill="none" xmlns="http://www.w3.org/2000/svg">
<path d="M286.522 128.181C257.417 128.181 233.741 104.505 233.741 75.4005C233.741 46.2959 257.417 22.6201 286.522 22.6201C315.626 22.6201 339.302 46.2959 339.302 75.4005C339.302 104.505 315.626 128.181 286.522 128.181ZM286.522 52.7803C274.081 52.7803 263.901 62.9594 263.901 75.4005C263.901 87.8416 274.081 98.0207 286.522 98.0207C298.963 98.0207 309.142 87.8416 309.142 75.4005C309.142 62.9594 298.963 52.7803 286.522 52.7803Z" fill="url(#paint0_linear_31_34)"/>
<path d="M550.424 414.703C517.172 414.703 490.104 387.634 490.104 354.383C490.104 321.131 517.172 294.062 550.424 294.062C583.676 294.062 610.744 321.131 610.744 354.383C610.744 387.634 583.676 414.703 550.424 414.703ZM550.424 327.993C535.872 327.993 524.034 339.83 524.034 354.383C524.034 368.935 535.872 380.773 550.424 380.773C564.976 380.773 576.814 368.935 576.814 354.383C576.814 339.83 564.976 327.993 550.424 327.993Z" fill="url(#paint1_linear_31_34)"/>
<path d="M852.026 90.4807C827.069 90.4807 806.786 70.1979 806.786 45.2403C806.786 20.2828 827.069 0 852.026 0C876.984 0 897.267 20.2828 897.267 45.2403C897.267 70.1979 876.984 90.4807 852.026 90.4807ZM852.026 30.1602C843.732 30.1602 836.946 36.9463 836.946 45.2403C836.946 53.5344 843.732 60.3205 852.026 60.3205C860.321 60.3205 867.107 53.5344 867.107 45.2403C867.107 36.9463 860.321 30.1602 852.026 30.1602Z" fill="url(#paint2_linear_31_34)"/>
<path d="M117.022 417.418C110.236 413.421 103.751 408.822 97.5682 403.695C94.4014 401.056 99.5287 405.58 96.5126 402.715C94.8538 401.131 93.195 399.472 91.5362 397.813C88.5202 394.647 85.5795 391.404 82.7897 387.936C80.2261 384.769 77.8133 381.376 75.4005 378.059C73.8925 376.023 76.0037 378.963 76.0791 379.114C75.4759 378.134 74.7973 377.154 74.1187 376.098C72.8369 374.062 71.6304 372.026 70.424 369.915C66.0508 362.3 62.2054 354.383 58.8123 346.164C57.9829 344.204 57.2289 342.168 56.3995 340.132C54.8161 336.136 56.2487 339.755 56.5503 340.509C56.2487 339.604 55.9471 338.775 55.6455 337.87C54.1375 333.421 52.7049 328.973 51.4231 324.449C48.8595 315.325 46.7483 306.051 45.014 296.626C44.26 292.253 43.506 287.804 42.9028 283.355C42.752 282.074 42.6012 280.792 42.375 279.585C42.375 279.812 42.8274 283.883 42.5258 281.093C42.2996 278.53 41.998 276.042 41.7718 273.478C41.0932 265.41 40.5654 257.267 40.6408 249.048C40.6408 245.278 40.867 241.508 41.0932 237.738C41.1686 236.305 41.0178 232.46 41.6964 231.254C41.6964 231.178 40.9424 236.155 41.4702 233.44C41.6964 232.083 41.8472 230.726 42.0734 229.369C43.2798 221.602 44.9386 213.911 47.2007 206.371C47.7285 204.562 48.3317 202.828 48.9349 201.018C49.7643 198.379 48.4071 199.887 48.4825 202.149C48.4825 201.621 49.1611 200.415 49.3119 199.962C50.8953 196.419 52.4033 192.799 54.1375 189.406C54.9669 187.823 55.7963 186.239 56.7011 184.731C57.2289 183.902 57.8321 183.073 58.2845 182.168C59.491 179.906 57.0781 183.977 57.1535 183.827C57.8321 180.811 62.507 176.739 64.392 174.628C65.523 173.421 66.8048 172.29 67.9358 171.009C69.5946 169.124 66.3524 172.517 66.4278 172.29C66.5786 171.838 68.4636 170.632 68.6144 170.481C71.4042 168.219 74.4203 166.334 77.4363 164.524C77.8133 164.298 78.9443 163.469 79.3213 163.544C77.8133 163.393 75.8529 164.977 78.3411 164.072C79.9245 163.469 81.5079 162.79 83.0913 162.262C84.6747 161.734 86.409 161.282 88.0678 160.829C89.8774 160.377 94.6276 160 90.4052 160.302C98.2468 159.849 105.712 159.623 113.553 160.302C116.494 160.603 109.783 159.548 112.724 160.151C113.478 160.302 114.232 160.452 114.986 160.603C117.022 161.056 118.982 161.508 121.018 162.036C124.712 163.016 128.407 164.298 132.026 165.655C133.685 166.334 135.419 167.012 137.078 167.691C137.832 167.993 142.959 170.33 140.32 169.124C137.908 168.068 142.582 170.255 143.487 170.782C145.372 171.763 147.182 172.818 149.067 173.874C155.853 177.719 162.413 181.942 168.897 186.315C182.318 195.288 195.363 204.939 208.935 213.534C233.515 229.142 261.263 242.488 289.915 240.829C335.231 238.19 371.8 204.486 403.393 170.028C418.548 153.516 433.025 136.098 448.407 119.887C452.177 115.966 455.947 112.121 459.793 108.351C461.527 106.692 463.336 105.033 465.146 103.374C467.71 100.961 460.848 107.069 464.467 103.977C465.523 103.073 466.503 102.243 467.559 101.338C474.797 95.3064 482.337 90.33 490.33 85.7305C493.195 84.0717 485.58 87.8417 488.596 86.5599C489.651 86.1075 490.707 85.5797 491.762 85.2027C493.723 84.3733 495.683 83.6947 497.719 83.0161C499.604 82.4129 501.414 82.0359 503.299 81.5835C503.676 81.5081 504.128 81.4327 504.505 81.3573C507.37 80.6033 501.338 81.8097 501.489 81.8097C502.545 81.8097 503.676 81.5081 504.731 81.4327C506.616 81.2819 508.577 81.2065 510.462 81.2819C511.442 81.2819 512.422 81.3573 513.327 81.4327C514.232 81.5081 518.605 82.1113 514.383 81.4327C510.16 80.7541 514.081 81.4327 514.986 81.6589C515.891 81.8851 516.946 82.1113 517.926 82.4129C520.264 83.0161 522.526 83.8455 524.712 84.7503C525.693 85.1273 526.748 85.8059 527.728 86.1075C525.466 85.4289 523.431 83.9209 526.748 85.7305C529.01 86.9369 531.197 88.2941 533.308 89.7268C535.419 91.1594 537.531 92.7428 539.566 94.3262C540.622 95.1556 541.678 96.1358 542.733 96.9652C544.543 98.3224 540.697 95.1556 540.848 95.3064C541.527 96.0604 542.356 96.739 543.11 97.4176C547.408 101.489 551.48 105.862 555.174 110.688C556.23 112.045 557.21 113.327 558.19 114.684C560.075 117.323 559.246 116.72 557.889 114.157C559.472 117.248 561.659 120.038 563.393 123.054C570.104 134.665 575.683 147.107 580.66 159.774C581.941 162.941 583.148 166.183 584.354 169.425C584.279 169.199 585.334 172.215 585.41 172.215C585.41 172.215 583.826 167.691 584.656 170.104C585.41 172.215 586.164 174.326 586.918 176.513C589.406 183.45 591.744 190.462 594.156 197.474C604.034 226.654 613.459 256.437 626.729 283.808C639.246 309.67 656.211 334.251 679.057 348.728C707.71 366.899 741.791 368.181 772.78 357.625C806.258 346.24 836.117 323.318 862.13 297.003C886.333 272.498 906.767 243.619 924.185 212.479C932.856 196.946 940.547 180.66 948.614 164.75C952.611 156.833 956.682 149.067 961.055 141.376C963.167 137.757 965.278 134.138 967.465 130.594C968.068 129.689 972.139 123.506 969.123 127.955C970.481 125.994 971.762 124.109 973.195 122.224C978.172 115.438 983.525 109.029 989.331 103.299C990.537 102.092 994.081 99.0764 990.763 101.791C992.271 100.509 993.779 99.2272 995.287 98.0208C998.605 95.3818 1002.15 92.969 1005.77 90.8578C1006.75 90.33 1007.73 89.8022 1008.71 89.2744C1008.48 89.4252 1005.39 90.6316 1007.58 89.953C1009.39 89.4252 1011.12 88.5957 1012.93 87.9925C1014.74 87.3893 1016.55 87.1631 1018.36 86.6353C1021.23 85.8059 1014.67 86.9369 1017.61 86.7107C1018.89 86.6353 1020.17 86.4091 1021.53 86.3337C1022.58 86.3337 1032.54 86.4091 1032.46 86.7861C1032.46 86.9369 1028.46 85.9567 1030.88 86.5599C1031.63 86.7861 1032.46 86.8615 1033.21 87.0123C1035.55 87.5401 1037.81 88.2187 1040.08 88.9728C1041.81 89.576 1043.54 90.33 1045.28 91.0086C1045.73 91.1594 1048.07 92.5166 1045.73 91.2348C1043.24 89.8776 1046.26 91.6118 1046.86 91.9134C1050.18 93.7984 1053.42 95.985 1056.44 98.3978C1057.12 98.9256 1057.72 99.4534 1058.4 99.9812C1055 97.4176 1057.27 98.9256 1058.02 99.6796C1059.45 101.112 1060.89 102.469 1062.24 103.977C1063.6 105.485 1064.88 107.069 1066.16 108.652C1066.92 109.557 1067.52 110.537 1068.28 111.442C1067.82 110.839 1065.79 107.597 1068.05 111.141C1074.38 121.018 1086.07 126.975 1096.02 119.585C1104.54 113.252 1110.12 97.9454 1103.34 87.3893C1080.41 51.5741 1042.04 31.2159 1003.51 41.9982C968.369 51.8003 942.507 87.1631 923.883 120.566C906.616 151.555 892.516 184.656 873.289 214.288C872.837 214.967 872.384 215.646 871.932 216.4C870.273 219.114 874.119 213.233 872.309 215.797C871.178 217.38 870.047 219.039 868.916 220.698C866.277 224.468 863.487 228.162 860.697 231.857C855.269 238.944 849.538 245.806 843.581 252.441C837.625 259.076 831.14 265.712 824.581 271.895C823.902 272.573 819.604 276.494 821.338 274.911C823.223 273.176 820.961 275.212 820.735 275.438C819.83 276.192 818.925 277.022 818.021 277.776C814.401 280.867 810.707 283.883 806.937 286.748C799.924 292.026 792.761 296.928 785.297 301.301C781.904 303.261 778.435 305.146 774.891 306.956C778.661 305.071 774.514 307.107 773.006 307.71C770.744 308.69 768.482 309.595 766.22 310.5C762.752 311.857 759.208 312.988 755.589 314.043C753.855 314.571 752.045 315.024 750.236 315.401C749.029 315.702 744.354 315.853 743.374 316.758C743.449 316.682 747.37 316.23 745.033 316.456C744.053 316.532 742.997 316.682 742.017 316.833C740.283 316.984 738.473 317.135 736.739 317.21C732.743 317.361 728.671 317.21 724.675 316.909C723.921 316.909 723.167 316.682 722.413 316.682C719.547 316.682 726.107 317.663 723.318 316.833C721.583 316.381 719.849 316.155 718.115 315.702C714.345 314.797 710.575 313.591 706.956 312.083C706.202 311.781 701.602 309.595 704.92 311.254C708.087 312.837 703.864 310.65 703.035 310.198C700.245 308.615 697.531 306.88 694.892 304.995C693.76 304.166 692.629 303.261 691.498 302.432C691.046 302.055 690.594 301.678 690.066 301.301C687.351 299.114 691.197 302.281 691.423 302.583C689.312 300.019 686.673 297.983 684.411 295.57C682.45 293.384 680.565 291.122 678.68 288.784C677.776 287.578 676.871 286.371 675.966 285.165C675.287 284.26 672.196 279.661 674.156 282.752C676.268 285.994 673.327 281.47 672.875 280.716C671.894 279.208 670.99 277.625 670.085 276.117C668.351 273.176 666.692 270.16 665.108 267.069C661.791 260.811 658.775 254.326 655.985 247.766C653.195 241.206 650.33 234.119 647.691 227.107C647.314 226.202 647.012 225.222 646.635 224.317C645.73 221.904 647.465 226.428 647.389 226.428C646.484 225.222 645.881 222.206 645.353 220.698C644.071 217.078 642.79 213.459 641.583 209.84C631.329 179.981 621.979 149.444 609.161 120.867C586.993 71.706 545.975 26.6919 494.477 35.9662C475.777 39.2838 458.435 50.5185 443.506 63.5628C426.013 78.7937 410.33 96.1358 394.797 113.855C379.416 131.272 364.109 148.69 347.22 164.223C343.223 167.842 349.557 162.262 347.22 164.223C346.239 165.052 345.259 165.881 344.279 166.711C342.168 168.445 340.132 170.179 337.945 171.838C333.723 175.08 329.425 178.172 325.052 180.961C322.865 182.319 320.679 183.676 318.417 184.882C317.361 185.485 316.305 186.013 315.325 186.541C310.952 188.878 318.266 185.259 315.702 186.39C311.178 188.351 306.654 190.236 301.904 191.593C299.566 192.272 297.229 192.875 294.816 193.327C294.364 193.403 293.836 193.478 293.384 193.629C290.292 194.307 295.872 193.252 295.947 193.252C294.665 193.252 293.384 193.553 292.102 193.704C287.125 194.157 282.149 194.157 277.248 193.629C276.569 193.629 275.891 193.478 275.212 193.403C272.724 193.176 275.74 192.272 277.549 193.78C276.871 193.252 274.76 193.252 273.93 193.101C270.688 192.422 267.446 191.518 264.279 190.462C260.81 189.331 257.342 188.049 253.949 186.616C251.989 185.787 250.104 184.882 248.143 184.053C252.29 185.862 247.54 183.751 245.881 182.846C217.38 167.766 192.271 145.372 163.695 130.368C130.895 113.101 93.6474 105.335 59.491 122.375C30.2355 136.928 11.7624 171.235 4.22234 205.693C-3.92093 242.639 -0.904903 281.923 6.86136 318.567C15.1554 357.776 31.2911 395.702 56.0979 424.581C67.6342 438.002 81.1309 449.538 95.7586 458.059C105.259 463.638 118.379 461.301 123.732 449.614C128.633 438.907 126.597 423.299 116.418 417.418H117.022Z" fill="url(#paint3_linear_31_34)"/>
<path d="M1068.35 111.442C1071.06 115.665 1073.55 120.038 1075.81 124.637C1076.8 126.673 1077.78 128.784 1078.68 130.82C1079.21 131.951 1079.66 133.082 1080.11 134.213C1080.49 135.118 1082.3 140.17 1080.79 135.872C1079.28 131.574 1080.87 136.098 1081.17 137.078C1081.55 138.285 1081.92 139.491 1082.3 140.622C1083.13 143.186 1083.88 145.825 1084.56 148.464C1085.92 153.591 1086.97 158.794 1087.88 164.072C1088.26 166.485 1088.63 168.897 1088.93 171.235C1089.01 171.989 1089.09 172.743 1089.24 173.497C1089.31 174.025 1088.63 167.465 1088.86 170.028C1089.01 171.536 1089.16 173.044 1089.31 174.552C1089.76 180.132 1090.07 185.636 1090.14 191.216C1090.29 202.526 1089.46 213.685 1088.48 224.995C1088.26 227.559 1088.93 221.301 1088.86 221.753C1088.71 222.507 1088.63 223.337 1088.56 224.166C1088.41 225.599 1088.18 226.956 1087.95 228.388C1087.5 231.404 1087.05 234.42 1086.52 237.436C1085.54 243.092 1084.41 248.747 1083.2 254.326C1080.57 266.089 1077.32 277.625 1073.48 289.01C1072.65 291.574 1071.67 294.062 1070.84 296.626C1069.93 299.34 1072.65 291.8 1071.59 294.515C1071.37 295.118 1071.14 295.646 1070.91 296.249C1070.31 297.832 1069.71 299.34 1069.1 300.924C1066.92 306.503 1064.58 312.008 1062.17 317.436C1057.42 328.068 1052.14 338.398 1046.41 348.351C1043.54 353.327 1040.53 358.228 1037.44 363.054C1036.46 364.562 1033.52 367.955 1037.74 362.677C1037.06 363.582 1036.46 364.637 1035.78 365.542C1034.12 367.955 1032.46 370.292 1030.73 372.63C1024.24 381.376 1017.38 389.67 1009.99 397.361C1006.52 400.98 1002.9 404.298 999.283 407.691C997.398 409.501 1003.05 404.449 1001.09 406.108C1000.72 406.409 1000.34 406.786 999.887 407.088C998.982 407.842 998.077 408.671 997.097 409.425C995.136 411.009 993.176 412.592 991.14 414.1C987.445 416.89 983.675 419.453 979.755 421.866C977.87 423.073 975.909 424.128 973.949 425.259C972.969 425.787 971.988 426.315 971.008 426.843C967.313 428.803 975.532 424.807 971.687 426.541C963.77 430.085 955.777 432.724 947.408 434.458C943.185 435.363 949.745 434.232 948.916 434.232C947.936 434.232 946.88 434.534 945.9 434.609C943.713 434.835 941.526 434.986 939.415 435.061C935.193 435.137 930.97 434.76 926.748 434.383C923.43 434.081 931.951 435.438 928.708 434.684C927.728 434.458 926.673 434.307 925.617 434.081C923.43 433.629 921.244 433.026 919.057 432.422C916.871 431.819 914.986 431.065 912.95 430.311C911.894 429.934 910.914 429.482 909.934 429.105C909.029 428.728 904.806 426.692 908.501 428.502C912.045 430.236 908.35 428.426 907.445 427.898C906.465 427.37 905.41 426.767 904.429 426.239C902.243 424.958 900.056 423.6 897.945 422.168C896.06 420.886 894.175 419.529 892.365 418.096C891.385 417.342 890.33 416.513 889.349 415.683C888.746 415.231 888.218 414.703 887.615 414.251C885.353 412.441 888.822 415.231 889.199 415.683C885.504 411.31 880.829 407.691 877.059 403.393C872.987 398.869 869.217 394.043 865.523 389.067C864.543 387.785 863.638 386.428 862.658 385.071C862.431 384.769 861.074 382.733 861.074 382.733C861.074 382.733 863.562 386.579 862.281 384.468C860.32 381.301 858.209 378.209 856.324 374.967C852.328 368.332 848.558 361.47 845.089 354.458C840.414 345.259 836.192 335.834 832.196 326.183C830.16 321.282 828.199 316.23 826.314 311.254C825.937 310.198 825.485 309.067 825.108 308.011C826.314 311.329 824.957 307.634 824.806 307.182C823.751 304.317 822.771 301.376 821.79 298.436C814.627 277.625 808.445 256.362 802.262 235.174C782.884 168.596 764.109 90.4808 709.971 49.6137C683.958 30.0095 652.365 25.9379 622.431 33.7041C591.442 41.772 563.468 61.8286 538.737 84.2225C493.647 125.09 460.471 180.434 428.275 234.345C420.282 247.766 412.29 261.263 404.071 274.534C399.924 281.32 395.777 288.03 391.479 294.665C389.444 297.832 387.408 301.075 385.296 304.241C384.392 305.599 383.487 306.956 382.582 308.313C380.395 311.631 382.733 308.162 383.11 307.559C382.507 308.464 381.903 309.369 381.3 310.273C364.109 335.608 345.334 359.736 323.92 380.396C322.639 381.678 321.281 382.884 320 384.091C319.396 384.694 315.174 388.539 317.511 386.428C319.849 384.317 315.476 388.238 314.948 388.615C313.364 389.972 311.781 391.254 310.198 392.535C304.618 397.059 298.887 401.357 293.006 405.354C290.066 407.389 287.05 409.35 283.958 411.235C282.45 412.215 280.867 413.12 279.359 414.025C278.68 414.402 278.001 414.854 277.323 415.156C277.323 415.156 272.497 417.568 275.061 416.287C277.323 415.231 274.684 416.437 274.307 416.588C273.251 417.041 272.196 417.568 271.065 418.021C269.18 418.85 267.295 419.68 265.334 420.434C261.187 422.092 256.965 423.676 252.742 425.033C244.674 427.747 236.531 429.859 228.237 431.593C226.126 432.045 224.09 432.422 221.979 432.799C221.074 432.95 220.169 433.101 219.264 433.252C220.094 433.101 223.261 432.573 219.264 433.252C214.74 433.855 210.141 434.307 205.617 434.684C197.097 435.288 188.501 435.363 179.981 434.911C175.758 434.684 171.461 434.307 167.238 433.78C165.881 433.629 160.603 432.649 164.524 433.403C162.111 432.95 159.773 432.573 157.361 432.045C149.142 430.311 140.923 427.898 133.006 424.882C131.347 424.204 129.613 423.6 127.954 422.846C127.276 422.545 121.922 420.207 123.807 421.037C125.692 421.866 120.641 419.378 119.811 418.926C118.454 418.172 117.097 417.418 115.739 416.588C106.239 411.009 93.1193 413.346 87.7659 425.033C82.8648 435.74 84.9006 451.348 95.0797 457.229C127.954 476.381 165.353 483.846 201.998 481.885C237.888 480 274.759 470.424 306.503 450.518C359.133 417.342 398.265 363.883 432.799 308.615C449.613 281.697 465.523 254.025 482.186 226.956C486.484 220.019 490.782 213.082 495.231 206.221C497.266 203.054 499.378 199.887 501.413 196.72C502.695 194.835 503.826 192.875 501.79 196.117C503.072 194.081 504.505 192.121 505.862 190.16C514.608 177.418 523.732 165.052 533.459 153.289C543.185 141.527 553.289 130.594 564.071 120.49C565.353 119.284 566.635 117.927 567.992 116.871C564.674 119.51 567.464 117.323 569.048 116.042C571.988 113.553 574.929 111.141 577.87 108.803C583.675 104.204 589.707 99.9812 595.89 95.985C598.906 94.0246 601.922 92.215 605.014 90.4054C606.597 89.5006 608.105 88.5958 609.689 87.7663C610.593 87.2385 611.498 86.7861 612.403 86.3337C610.518 87.3139 611.046 86.9369 612.629 86.3337C620.546 82.8653 628.539 79.9247 636.908 78.1151C637.813 77.8889 640.829 77.8889 641.508 77.2103C640.377 78.4167 637.813 77.6627 640.603 77.3611C641.583 77.2857 642.563 77.1349 643.543 77.0595C647.087 76.7579 650.706 76.6071 654.25 76.7579C655.834 76.7579 657.493 76.9087 659.076 77.0595C659.755 77.0595 660.433 77.2857 661.112 77.2857C663.902 77.2857 656.965 76.3809 659.679 77.0595C662.921 77.8889 666.164 78.4921 669.33 79.4723C670.537 79.8493 677.021 83.3931 677.926 82.8653C677.926 82.8653 674.081 80.8295 676.041 81.9605C676.795 82.4129 677.625 82.7899 678.379 83.1669C679.962 83.9963 681.47 84.9011 682.978 85.8813C685.617 87.5401 688.181 89.3498 690.669 91.3102C691.121 91.6872 694.363 94.4016 694.363 94.3262C694.363 94.4016 691.121 91.3102 692.78 92.969C693.609 93.7984 694.514 94.5524 695.344 95.3818C700.32 100.207 704.844 105.561 709.067 111.216C710.122 112.649 711.102 114.081 712.158 115.514C712.912 116.569 714.722 118.304 711.555 114.534C712.007 115.061 712.46 115.815 712.837 116.494C714.948 119.812 716.984 123.129 718.944 126.522C726.861 140.396 733.119 155.25 739.001 170.33C736.889 164.901 739.151 170.782 739.604 172.064C740.282 173.949 740.961 175.91 741.564 177.795C743.072 182.243 744.505 186.692 745.862 191.141C748.878 200.943 751.819 210.82 754.759 220.622C777.153 296.023 797.21 379.567 848.407 436.796C864.467 454.741 883.77 469.293 905.41 476.607C924.788 483.167 945.372 483.167 964.976 477.964C1004.41 467.484 1038.42 435.589 1063.37 400C1091.65 359.661 1112.76 312.234 1123.39 261.715C1133.65 212.78 1134.17 160.829 1116.53 114.081C1112.99 104.581 1108.54 95.608 1103.19 87.3139C1096.85 77.4365 1085.16 71.4798 1075.21 78.8691C1066.69 85.2027 1061.11 100.509 1067.9 111.065L1068.35 111.442Z" fill="url(#paint4_linear_31_34)"/>
<defs>
<linearGradient id="paint0_linear_31_34" x1="249.198" y1="112.724" x2="323.845" y2="38.0772" gradientUnits="userSpaceOnUse">
<stop stop-color="#30BDFB"/>
<stop offset="0.24" stop-color="#0A91F5"/>
<stop offset="0.28" stop-color="#0C93EB"/>
<stop offset="0.36" stop-color="#1498D2"/>
<stop offset="0.45" stop-color="#20A1A9"/>
<stop offset="0.47" stop-color="#23A4A0"/>
<stop offset="0.76" stop-color="#5FB95C"/>
<stop offset="1" stop-color="#ECC60F"/>
</linearGradient>
<linearGradient id="paint1_linear_31_34" x1="507.823" y1="396.984" x2="593.025" y2="311.781" gradientUnits="userSpaceOnUse">
<stop stop-color="#FFB152"/>
<stop offset="0.21" stop-color="#F36086"/>
<stop offset="0.44" stop-color="#E2579D"/>
<stop offset="0.5" stop-color="#D955A6"/>
<stop offset="0.6" stop-color="#C351BF"/>
<stop offset="0.66" stop-color="#B24FD4"/>
<stop offset="0.79" stop-color="#AA5FED"/>
<stop offset="0.98" stop-color="#C97CEB"/>
</linearGradient>
<linearGradient id="paint2_linear_31_34" x1="820.057" y1="77.2102" x2="883.996" y2="13.2705" gradientUnits="userSpaceOnUse">
<stop stop-color="#0C8AEC"/>
<stop offset="0.44" stop-color="#0737C4"/>
<stop offset="0.51" stop-color="#1039C6"/>
<stop offset="0.62" stop-color="#293FCD"/>
<stop offset="0.77" stop-color="#534AD7"/>
<stop offset="0.93" stop-color="#8C58E6"/>
<stop offset="1" stop-color="#A55FED"/>
</linearGradient>
<linearGradient id="paint3_linear_31_34" x1="1105.07" y1="247.917" x2="27.0687" y2="247.917" gradientUnits="userSpaceOnUse">
<stop offset="0.07" stop-color="#C97CEB"/>
<stop offset="0.16" stop-color="#0C8AEC"/>
<stop offset="0.29" stop-color="#30BDFB"/>
<stop offset="0.31" stop-color="#31BCF1"/>
<stop offset="0.35" stop-color="#36BAD8"/>
<stop offset="0.4" stop-color="#3EB8AE"/>
<stop offset="0.46" stop-color="#4AB571"/>
<stop offset="0.65" stop-color="#D6C31B"/>
<stop offset="0.75" stop-color="#FF8A4B"/>
<stop offset="0.91" stop-color="#FFB152"/>
</linearGradient>
<linearGradient id="paint4_linear_31_34" x1="102.695" y1="256.362" x2="1117.51" y2="256.362" gradientUnits="userSpaceOnUse">
<stop stop-color="#FFB152"/>
<stop offset="0.21" stop-color="#F36086"/>
<stop offset="0.44" stop-color="#E2579D"/>
<stop offset="0.5" stop-color="#D955A6"/>
<stop offset="0.6" stop-color="#C351BF"/>
<stop offset="0.66" stop-color="#B24FD4"/>
<stop offset="0.79" stop-color="#AA5FED"/>
<stop offset="0.98" stop-color="#C97CEB"/>
</linearGradient>
</defs>
</svg>
